Coordinates
version=1
nRows=30
nColumns=38
inDegrees=no

Units are S.I. units (second, meters, Newtons, ...)
If the header above contains a line with 'inDegrees', this indicates whether rotational values are in degrees (yes) or radians (no).

endheader
time	pelvis_tilt	pelvis_list	pelvis_rotation	pelvis_tx	pelvis_ty	pelvis_tz	hip_flexion_r	hip_adduction_r	hip_rotation_r	knee_angle_r	ankle_angle_r	subtalar_angle_r	mtp_angle_r	hip_flexion_l	hip_adduction_l	hip_rotation_l	knee_angle_l	ankle_angle_l	subtalar_angle_l	mtp_angle_l	lumbar_extension	lumbar_bending	lumbar_rotation	arm_flex_r	arm_add_r	arm_rot_r	elbow_flex_r	pro_sup_r	wrist_flex_r	wrist_dev_r	arm_flex_l	arm_add_l	arm_rot_l	elbow_flex_l	pro_sup_l	wrist_flex_l	wrist_dev_l
0.72	-0.0768369	0.0680138	-0.0493135	1.09214	0.951436	-0.420735	0.799698	0.046935	0.0910044	-2.11634	0.170027	-0.011301	-0.00541667	0.174108	0.188774	-0.0315949	-0.814351	0.423476	-0.0674457	-0.0432307	-0.314509	-0.0864935	-0.171989	-0.67682	-0.224392	-0.140892	1.74104	1.65599	0.0123863	7.90272e-05	-0.180241	-0.28098	-0.240133	2.17881	1.71947	0.00213982	0.0132023
0.73	-0.0975643	0.0415377	-0.058065	1.09515	0.956521	-0.421414	0.871247	0.0730972	0.0747069	-2.03782	0.188145	-0.011301	-0.00541667	0.108019	0.161451	-0.0213951	-0.749318	0.366732	-0.0674457	-0.0432307	-0.281421	-0.0504993	-0.176619	-0.736173	-0.22674	-0.159646	1.78819	1.6637	0.0123863	7.90272e-05	-0.161057	-0.263018	-0.220936	2.21523	1.7179	0.00213982	0.0132023
0.74	-0.118587	0.0158797	-0.0661579	1.09872	0.96202	-0.421899	0.932065	0.0979716	0.056096	-1.94472	0.204035	-0.011301	-0.00541667	0.0446453	0.132921	-0.0150561	-0.68274	0.292042	-0.0674457	-0.0432307	-0.247398	-0.0146697	-0.180331	-0.79599	-0.228597	-0.179474	1.83679	1.66867	0.0123863	7.90272e-05	-0.145926	-0.246094	-0.197124	2.25124	1.71483	0.00213982	0.0132023
0.75	-0.138699	-0.00686237	-0.0730015	1.10261	0.967738	-0.422242	0.980595	0.120155	0.0379143	-1.83847	0.217982	-0.011301	-0.00541667	-0.0149092	0.10611	-0.0113997	-0.618752	0.204557	-0.0674457	-0.0432307	-0.214318	0.0187303	-0.184268	-0.85501	-0.229357	-0.19985	1.88517	1.67005	0.0123863	7.90272e-05	-0.133941	-0.231963	-0.169202	2.28559	1.71175	0.00213982	0.0132023
0.76	-0.156837	-0.0249507	-0.0781537	1.10655	0.973472	-0.422558	1.01579	0.138429	0.0226937	-1.72034	0.230267	-0.011301	-0.00541667	-0.069748	0.0837122	-0.0087971	-0.561433	0.111018	-0.0674457	-0.0432307	-0.183802	0.0477239	-0.189159	-0.912092	-0.228555	-0.220235	1.93213	1.66761	0.0123863	7.90272e-05	-0.124325	-0.221985	-0.138051	2.31745	1.70999	0.00213982	0.0132023
0.77	-0.172162	-0.0372658	-0.0813813	1.11031	0.979023	-0.42299	1.03709	0.151909	0.0123413	-1.59144	0.241143	-0.011301	-0.00541667	-0.119182	0.0677943	-0.00551837	-0.514635	0.0189633	-0.0674457	-0.0432307	-0.157125	0.070889	-0.195187	-0.966232	-0.225834	-0.240147	1.97683	1.66173	0.0123863	7.90272e-05	-0.116464	-0.217041	-0.104723	2.34625	1.71041	0.00213982	0.0132023
0.78	-0.184082	-0.0434598	-0.082682	1.11374	0.984217	-0.423663	1.04444	0.160182	0.00792022	-1.45283	0.250782	-0.011301	-0.00541667	-0.162728	0.0595052	-0.000111609	-0.481796	-0.0643187	-0.0674457	-0.0432307	-0.135188	0.0875418	-0.201993	-1.01652	-0.220943	-0.259176	2.01869	1.65321	0.0123863	7.90272e-05	-0.109947	-0.217482	-0.0702669	2.37157	1.71333	0.00213982	0.0132023
0.79	-0.192234	-0.0439384	-0.0822608	1.11677	0.988921	-0.424649	1.03815	0.163389	0.00965798	-1.3058	0.259229	-0.011301	-0.00541667	-0.200091	0.0589565	0.0082529	-0.465739	-0.132943	-0.0674457	-0.0432307	-0.118545	0.0977779	-0.208806	-1.0621	-0.213789	-0.276976	2.05729	1.64305	0.0123863	7.90272e-05	-0.104603	-0.223138	-0.0356394	2.39301	1.71849	0.00213982	0.0132023
0.8	-0.196491	-0.0397055	-0.0804687	1.1194	0.993041	-0.42595	1.01897	0.162192	0.0171161	-1.15212	0.266367	-0.011301	-0.00541667	-0.231117	0.0653002	0.0195482	-0.468517	-0.183378	-0.0674457	-0.0432307	-0.107456	0.102348	-0.214672	-1.1021	-0.204524	-0.293227	2.0923	1.63229	0.0123863	7.90272e-05	-0.100547	-0.233363	-0.00169096	2.41008	1.72521	0.00213982	0.0132023
0.81	-0.196931	-0.0321629	-0.0777371	1.1217	0.996515	-0.427492	0.988073	0.157601	0.0293955	-0.994435	0.27191	-0.011301	-0.00541667	-0.255708	0.0769611	0.0328361	-0.491289	-0.214871	-0.0674457	-0.0432307	-0.1019	0.102408	-0.218701	-1.13561	-0.193641	-0.307618	2.12347	1.6219	0.0123863	7.90272e-05	-0.0981983	-0.247127	0.0307844	2.42229	1.73254	0.00213982	0.0132023
0.82	-0.19383	-0.0228068	-0.0745041	1.12373	0.99928	-0.429143	0.947191	0.150763	0.0452564	-0.836424	0.275405	-0.011301	-0.00541667	-0.273734	0.0919134	0.0464296	-0.534264	-0.229208	-0.0674457	-0.0432307	-0.101562	0.0992721	-0.220277	-1.16173	-0.182009	-0.319831	2.15062	1.61275	0.0123863	7.90272e-05	-0.0982606	-0.263144	0.0609778	2.4291	1.73941	0.00213982	0.0132023
0.83	-0.187682	-0.0129913	-0.0711478	1.12558	1.00127	-0.430749	0.898702	0.142761	0.0631441	-0.682939	0.276273	-0.011301	-0.00541667	-0.284983	0.107963	0.0582335	-0.596695	-0.229897	-0.0674457	-0.0432307	-0.105823	0.0942073	-0.219152	-1.17962	-0.170821	-0.329573	2.17366	1.60555	0.0123863	7.90272e-05	-0.101609	-0.280017	0.0880327	2.43009	1.74485	0.00213982	0.0132023
0.84	-0.179187	-0.00379668	-0.0679448	1.12725	1.0024	-0.432177	0.845669	0.134486	0.0811838	-0.539893	0.273901	-0.011301	-0.00541667	-0.289189	0.122987	0.0661723	-0.676946	-0.221102	-0.0674457	-0.0432307	-0.113789	0.0883106	-0.21541	-1.18864	-0.161429	-0.33662	2.1926	1.60086	0.0123863	7.90272e-05	-0.109099	-0.29638	0.111076	2.4249	1.74804	0.00213982	0.0132023
0.85	-0.169189	0.00400445	-0.0650647	1.12874	1.00261	-0.433348	0.791753	0.126634	0.0972384	-0.414004	0.267815	-0.011301	-0.00541667	-0.286109	0.13511	0.0685858	-0.772632	-0.206682	-0.0674457	-0.0432307	-0.1244	0.0825004	-0.209306	-1.1885	-0.155104	-0.340887	2.20758	1.59901	0.0123863	7.90272e-05	-0.121318	-0.311016	0.129315	2.41327	1.74837	0.00213982	0.0132023
0.86	-0.158584	0.0099362	-0.0625874	1.12999	1.00186	-0.434236	0.740997	0.119762	0.109104	-0.312362	0.257921	-0.011301	-0.00541667	-0.275637	0.142831	0.0645197	-0.880801	-0.189591	-0.0674457	-0.0432307	-0.136597	0.0775376	-0.201123	-1.17925	-0.152861	-0.342434	2.21878	1.60007	0.0123863	7.90272e-05	-0.138421	-0.322927	0.142118	2.39497	1.74553	0.00213982	0.0132023
0.87	-0.148253	0.0137416	-0.0605519	1.13085	1.00008	-0.434915	0.697441	0.114382	0.114832	-0.241781	0.244712	-0.011301	-0.00541667	-0.257888	0.145113	0.0538884	-0.998169	-0.171654	-0.0674457	-0.0432307	-0.149494	0.0740283	-0.191084	-1.16119	-0.15538	-0.341404	2.22635	1.60379	0.0123863	7.90272e-05	-0.160079	-0.331378	0.149057	2.36978	1.73963	0.00213982	0.0132023
0.88	-0.138799	0.0152867	-0.0589966	1.1312	0.997233	-0.435434	0.664591	0.111012	0.113123	-0.20779	0.229353	-0.011301	-0.00541667	-0.233175	0.141439	0.0375079	-1.12136	-0.153649	-0.0674457	-0.0432307	-0.16246	0.0724489	-0.179321	-1.13473	-0.163017	-0.337935	2.23028	1.60959	0.0123863	7.90272e-05	-0.185533	-0.335904	0.149924	2.33749	1.73126	0.00213982	0.0132023
0.89	-0.130538	0.0144872	-0.0579818	1.13095	0.993345	-0.435851	0.644595	0.110226	0.103734	-0.213174	0.213529	-0.011301	-0.00541667	-0.201982	0.131813	0.0169958	-1.24712	-0.13555	-0.0674457	-0.0432307	-0.175197	0.0731866	-0.165845	-1.10028	-0.175809	-0.332098	2.2304	1.61653	0.0123863	7.90272e-05	-0.21369	-0.33632	0.144786	2.29788	1.72155	0.00213982	0.0132023
0.9	-0.123492	0.0112541	-0.0575933	1.13007	0.988469	-0.436192	0.637463	0.112609	0.0877625	-0.256632	0.19921	-0.011301	-0.00541667	-0.164914	0.116723	-0.00544128	-1.3725	-0.116874	-0.0674457	-0.0432307	-0.187744	0.076545	-0.150546	-1.05816	-0.193468	-0.323894	2.22637	1.62341	0.0123863	7.90272e-05	-0.243282	-0.332738	0.134025	2.25088	1.71194	0.00213982	0.0132023
0.91	-0.117422	0.00551161	-0.0579243	1.12861	0.98274	-0.436457	0.640843	0.118679	0.0676416	-0.332475	0.188637	-0.011301	-0.00541667	-0.122628	0.0970776	-0.027324	-1.49485	-0.0970356	-0.0674457	-0.0432307	-0.200385	0.0827049	-0.133239	-1.00868	-0.215389	-0.313277	2.21783	1.62889	0.0123863	7.90272e-05	-0.273073	-0.325571	0.11835	2.19667	1.70391	0.00213982	0.0132023
0.92	-0.111901	-0.00273232	-0.0590478	1.1267	0.976497	-0.436629	0.650472	0.128774	0.0467549	-0.431582	0.184395	-0.011301	-0.00541667	-0.0757676	0.0741017	-0.0462835	-1.6118	-0.0756262	-0.0674457	-0.0432307	-0.213473	0.0916323	-0.113733	-0.952234	-0.240642	-0.300234	2.20461	1.63176	0.0123863	7.90272e-05	-0.30209	-0.31555	0.0987603	2.13595	1.69866	0.00213982	0.0132023
0.93	-0.106382	-0.0132113	-0.0609602	1.12452	0.970268	-0.436676	0.661232	0.142888	0.0286838	-0.543413	0.18935	-0.011301	-0.00541667	-0.0249198	0.0492469	-0.0604248	-1.72114	-0.0525533	-0.0674457	-0.0432307	-0.227225	0.102962	-0.0919178	-0.889443	-0.267981	-0.284902	2.18692	1.63115	0.0123863	7.90272e-05	-0.329832	-0.303706	0.0764883	2.07015	1.69675	0.00213982	0.0132023
0.94	-0.100489	-0.0252799	-0.0635453	1.12223	0.964578	-0.436622	0.667966	0.160457	0.0164287	-0.657437	0.205873	-0.011301	-0.00541667	0.0294168	0.0240652	-0.0686305	-1.82077	-0.0280476	-0.0674457	-0.0432307	-0.241567	0.115912	-0.0678208	-0.82137	-0.295863	-0.267692	2.16567	1.62687	0.0123863	7.90272e-05	-0.356386	-0.29135	0.0529318	2.00159	1.69801	0.00213982	0.0132023
0.95	-0.0941136	-0.0379121	-0.0665674	1.11996	0.959737	-0.436524	0.666196	0.180221	0.011857	-0.764139	0.234889	-0.011301	-0.00541667	0.0868877	6.33e-05	-0.0707519	-1.9087	-0.00258109	-0.0674457	-0.0432307	-0.255969	0.129274	-0.0416251	-0.749651	-0.322505	-0.249409	2.14257	1.6196	0.0123863	7.90272e-05	-0.382426	-0.279998	0.0295815	1.9334	1.70157	0.00213982	0.0132023
0.96	-0.0875586	-0.0497059	-0.0696825	1.11785	0.95587	-0.43645	0.652666	0.200287	0.0155315	-0.855781	0.275266	-0.011301	-0.00541667	0.147275	-0.0214472	-0.0676332	-1.98312	0.02324	-0.0674457	-0.0432307	-0.269432	0.141545	-0.0136363	-0.676546	-0.346006	-0.231273	2.12015	1.61094	0.0123863	7.90272e-05	-0.409097	-0.271254	0.00789865	1.86936	1.70612	0.00213982	0.0132023
0.97	-0.0814639	-0.0592015	-0.0725168	1.11603	0.953065	-0.436423	0.625679	0.218322	0.0268765	-0.926839	0.323778	-0.011301	-0.00541667	0.21046	-0.0394296	-0.0609657	-2.0425	0.0487777	-0.0674457	-0.0432307	-0.28057	0.151048	0.0157611	-0.604807	-0.36456	-0.214799	2.10153	1.60323	0.0123863	7.90272e-05	-0.437837	-0.266612	-0.0108813	1.8135	1.71029	0.00213982	0.0132023
0.98	-0.0766742	-0.0650175	-0.074739	1.11464	0.951413	-0.436416	0.585133	0.231951	0.0444683	-0.974099	0.375535	-0.011301	-0.00541667	0.276324	-0.0531857	-0.0529708	-2.08569	0.0734497	-0.0674457	-0.0432307	-0.287802	0.156229	0.0461543	-0.537347	-0.376747	-0.201507	2.09006	1.59913	0.0123863	7.90272e-05	-0.47016	-0.267195	-0.0260043	1.76955	1.71289	0.00213982	0.0132023
0.99	-0.0741153	-0.0660905	-0.0761229	1.11381	0.950951	-0.43637	0.532263	0.239108	0.0663104	-0.996427	0.424638	-0.011301	-0.00541667	0.344612	-0.0623438	-0.0459978	-2.11202	0.0967946	-0.0674457	-0.0432307	-0.289646	0.155892	0.0771131	-0.476773	-0.381839	-0.192504	2.08865	1.60096	0.0123863	7.90272e-05	-0.50746	-0.273482	-0.0374387	1.7404	1.71323	0.00213982	0.0132023
1	-0.0745984	-0.0618391	-0.0765737	1.11367	0.951628	-0.43623	0.469214	0.238304	0.0900585	-0.994359	0.464866	-0.011301	-0.00541667	0.414797	-0.0667934	-0.0421171	-2.12129	0.118499	-0.0674457	-0.0432307	-0.285002	0.149374	0.10817	-0.424913	-0.380025	-0.188074	2.09928	1.61013	0.0123863	7.90272e-05	-0.550843	-0.285102	-0.0459858	1.72769	1.71121	0.00213982	0.0132023
1.01	-0.0786418	-0.0522117	-0.0761162	1.11433	0.953322	-0.43598	0.398565	0.228767	0.113232	-0.969684	0.49031	-0.011301	-0.00541667	0.485978	-0.0665956	-0.042792	-2.11378	0.138378	-0.0674457	-0.0432307	-0.273361	0.136606	0.138788	-0.382516	-0.372456	-0.187444	2.12258	1.62675	0.0123863	7.90272e-05	-0.601008	-0.300786	-0.0532049	1.73153	1.70727	0.00213982	0.0132023
